<svg version="1.1" id="Layer_1" xmlns="http://www.w3.org/2000/svg" xmlns:xlink="http://www.w3.org/1999/xlink" x="0px" y="0px"
	 width="100%" viewBox="0 0 936 940" enable-background="new 0 0 936 940" xml:space="preserve">
<path fill="#EAE9E5" opacity="1.000000" stroke="none" 
	d="
M937.000000,189.000015 
	C937.000000,376.692505 937.000000,564.385010 936.646484,752.229492 
	C935.863403,753.215332 935.196594,754.007629 935.041931,754.889648 
	C933.894287,761.434631 933.319824,768.117737 931.684204,774.532776 
	C926.254395,795.829529 918.140686,816.058777 907.033264,835.099426 
	C893.914734,857.587646 877.009644,876.896362 856.975342,893.236023 
	C843.256470,904.424927 828.225647,913.827209 811.875183,921.162354 
	C792.316040,929.936951 772.254578,936.459656 750.951660,939.076965 
	C750.233215,939.165283 749.647583,940.334595 749.000000,941.000000 
	C562.640808,941.000000 376.281677,941.000000 189.770477,940.646545 
	C188.784561,939.863586 187.992233,939.197144 187.110184,939.042480 
	C180.565216,937.894470 173.882401,937.318970 167.467209,935.683655 
	C146.170151,930.254517 125.941093,922.140564 106.900780,911.032471 
	C84.413185,897.913269 65.102821,881.010376 48.764095,860.975159 
	C37.575809,847.255676 28.172909,832.225220 20.837440,815.874878 
	C12.062377,796.315796 5.540203,776.254211 2.922950,754.951233 
	C2.834688,754.232910 1.665413,753.647400 1.000008,753.000000 
	C1.000000,565.307495 1.000000,377.614990 1.353458,189.770599 
	C2.136451,188.784851 2.803034,187.992569 2.957689,187.110519 
	C4.105269,180.565536 4.679200,173.882339 6.315294,167.467514 
	C11.746829,146.171417 19.857977,125.941231 30.966709,106.901115 
	C44.086529,84.414047 60.989616,65.104050 81.023972,48.764351 
	C94.743080,37.575268 109.774277,28.173674 126.124474,20.838095 
	C145.683487,12.062872 165.745148,5.540278 187.048111,2.922655 
	C187.766647,2.834365 188.352371,1.665297 189.000000,1.000001 
	C375.359161,1.000000 561.718323,1.000000 748.229431,1.353462 
	C749.215088,2.136687 750.007263,2.803702 750.889282,2.958355 
	C757.434204,4.106009 764.117310,4.680302 770.532288,6.315957 
	C791.828735,11.746065 812.057861,19.858780 831.098267,30.966953 
	C853.586060,44.086342 872.895264,60.990311 889.235474,81.024055 
	C900.424866,94.742699 909.826965,109.773827 917.162170,126.124123 
	C925.936951,145.682999 932.458923,165.744766 935.077881,187.047287 
	C935.166199,187.766098 936.334900,188.352112 937.000000,189.000015 
M268.999756,267.013763 
	C268.999756,267.013763 268.930450,267.040161 269.157593,267.672058 
	C271.437164,270.118744 273.716705,272.565430 276.101135,275.506042 
	C276.373932,275.679810 276.646759,275.853577 277.227509,276.669586 
	C278.888977,277.351349 280.493835,278.369446 282.221130,278.660400 
	C293.492310,280.558899 304.800507,282.237091 316.075745,284.112671 
	C324.522888,285.517822 332.938782,287.110626 341.677917,288.675262 
	C337.508606,306.672302 335.999695,323.786804 339.874329,341.860992 
	C343.444641,360.244202 351.199677,376.711212 363.932648,390.390564 
	C379.355621,406.959930 395.261932,423.090118 411.252655,439.117432 
	C428.406738,456.310822 445.653381,473.428650 463.357025,490.049683 
	C471.739929,497.919891 481.828491,503.611725 493.374084,507.814087 
	C504.241852,511.784912 515.249451,515.089722 527.894531,515.124023 
	C531.931213,515.030273 535.967896,514.936523 540.872742,514.959229 
	C555.323547,513.954895 569.040771,510.407288 581.895081,503.200531 
	C581.895081,503.200531 581.998291,503.031189 582.707031,502.927734 
	C587.153015,499.956757 591.598999,496.985748 596.686218,493.831482 
	C612.081970,482.112396 622.810791,466.828217 631.026367,449.969604 
	C631.992493,449.123077 633.381531,448.455841 633.832764,447.391113 
	C634.659851,445.439636 634.777283,443.200653 635.463745,441.174072 
	C639.386353,429.593903 641.709167,417.504547 640.689148,405.512970 
	C639.597717,392.680603 636.091125,380.050629 633.484436,367.364014 
	C633.403076,366.968109 631.613586,366.923218 630.168335,366.124603 
	C624.388367,351.711090 615.909302,338.986389 605.027222,328.032715 
	C580.733643,303.579376 556.034302,279.529175 531.728699,255.087616 
	C504.823761,228.032104 472.218536,216.526596 434.470703,218.481186 
	C432.048737,218.606613 429.625885,218.714722 426.654907,218.857193 
	C428.609619,197.616577 430.322418,177.070877 432.553009,156.581543 
	C432.945892,152.972672 432.349731,150.613663 429.979645,148.155792 
	C411.138397,128.616943 392.326019,109.049934 373.591003,89.409340 
	C370.670624,86.347786 368.971985,86.877304 366.668304,90.186043 
	C353.262238,109.440933 339.776306,128.642609 326.062927,147.678986 
	C323.554352,151.161255 323.869263,153.051224 326.810089,155.994980 
	C344.342438,173.544632 361.659241,191.309662 378.968048,209.681717 
	C378.564514,210.726288 378.160980,211.770874 377.875854,212.878311 
	C377.875854,212.878311 377.813568,212.759598 377.128998,212.997620 
	C374.224213,215.089340 372.285583,213.377258 370.287537,211.382004 
	C364.199921,205.302948 358.047943,199.288361 351.930054,193.069641 
	C351.930054,193.069641 351.750977,193.078613 351.443848,192.508591 
	C346.943024,188.081772 342.442200,183.654968 337.667847,178.663788 
	C337.037262,178.128494 336.406677,177.593216 335.478394,176.481613 
	C330.659485,171.641144 325.840546,166.800659 320.994904,161.994415 
	C320.994904,161.994415 321.036133,161.981735 320.858917,161.242111 
	C320.249573,159.532257 319.519501,157.854813 319.050476,156.107285 
	C316.022064,144.823364 310.263306,135.145859 301.806519,126.324722 
	C300.856964,125.554390 299.907440,124.784058 298.645325,123.427155 
	C293.429901,120.279373 288.214478,117.131592 282.616699,113.882996 
	C282.616699,113.882996 282.222900,113.918549 281.978973,113.251556 
	C276.519409,111.502548 271.142517,109.401428 265.579010,108.095146 
	C258.876526,106.521439 252.206833,106.537369 245.770905,109.991798 
	C240.364624,112.893570 236.021393,123.448677 243.046036,128.960037 
	C243.046036,128.960037 243.132065,128.948425 243.475708,129.536484 
	C246.397369,130.407639 249.800186,132.697220 252.155334,131.898315 
	C261.157257,128.844711 268.998779,131.473984 276.904602,135.080902 
	C276.904602,135.080902 276.812836,135.142090 277.176971,135.675171 
	C278.446472,136.464935 279.715942,137.254700 281.270538,138.568085 
	C281.908539,139.028763 282.546570,139.489456 283.473114,140.523087 
	C285.269623,142.369385 287.066132,144.215683 289.056915,146.729218 
	C291.902008,152.887344 296.344910,158.832794 297.199829,165.255829 
	C298.344971,173.858994 303.142090,179.329666 308.329620,185.143738 
	C321.635468,200.056747 334.798035,215.097992 348.159363,229.960785 
	C350.602936,232.678955 350.208557,234.676376 347.652130,236.580933 
	C344.209503,239.145691 342.578613,236.046036 340.791443,234.030350 
	C324.989380,216.207748 309.281708,198.300766 293.353943,180.591583 
	C292.018433,179.106735 288.787109,177.648178 287.271118,178.256668 
	C265.064392,187.169769 242.998535,196.433929 220.902222,205.621979 
	C217.465408,207.051056 216.643234,209.098587 219.339951,212.076050 
	C234.987747,229.353058 250.615585,246.648148 266.464752,264.499329 
	C267.295349,265.357574 268.125916,266.215790 268.999756,267.013763 
M682.424622,548.604858 
	C677.185059,548.128723 674.309387,550.662842 673.362366,555.690002 
	C672.965210,557.798279 672.513977,559.896423 671.773254,562.411987 
	C671.790405,562.584045 671.807617,562.756042 671.394287,563.494751 
	C666.653015,581.661316 661.911743,599.827881 656.740295,618.598877 
	C656.443115,620.045837 656.145996,621.492859 655.431641,623.530212 
	C649.484314,645.756958 643.537048,667.983704 637.589783,690.210510 
	C637.043762,690.211548 636.497803,690.212585 635.951782,690.213623 
	C635.041016,687.362732 634.115662,684.516418 633.222229,681.660095 
	C630.835693,674.031311 628.462830,666.398132 626.123718,658.376587 
	C626.123718,658.376587 626.006958,658.002380 626.337036,657.425354 
	C625.260681,653.267578 624.184265,649.109863 623.156799,644.422241 
	C623.051514,644.279541 622.946167,644.136841 622.846680,643.206055 
	C618.297241,627.528748 613.565796,611.901245 609.256775,596.158142 
	C605.903625,583.907654 603.147278,571.494812 599.964722,559.195801 
	C599.194519,556.219604 597.788940,553.407776 596.569702,550.403870 
	C596.569702,550.403870 596.450439,550.301208 596.065857,549.807007 
	C595.369751,549.349548 594.673706,548.892090 593.633606,547.768982 
	C593.052795,547.519592 592.472961,547.055054 591.891113,547.052612 
	C580.196045,547.003967 568.500549,546.974792 556.806030,547.065979 
	C555.871033,547.073242 554.943115,547.984802 553.091187,548.666504 
	C545.078552,548.834412 537.065918,549.002319 528.754578,548.721985 
	C528.159546,549.063782 527.564575,549.405640 526.481201,550.133362 
	C525.660950,550.758423 524.840759,551.383484 523.319214,552.156677 
	C522.255493,555.285645 520.268799,558.426453 520.309021,561.541199 
	C520.411072,569.454102 521.926208,577.353394 521.955566,585.261597 
	C522.007324,599.200745 521.107117,613.141785 521.075195,627.083130 
	C520.955261,679.520996 521.043274,731.959351 520.978027,784.397461 
	C520.974060,787.585388 521.824646,789.882202 525.421204,791.457520 
	C526.621643,792.381531 527.822083,793.305481 529.275085,794.968506 
	C529.973145,795.305115 530.669739,795.931702 531.369568,795.935303 
	C543.229309,795.996704 555.089844,796.024170 566.948669,795.904785 
	C567.964172,795.894592 568.968689,794.795410 570.500366,793.840820 
	C571.584473,793.200439 572.668640,792.560059 574.529419,791.846497 
	C575.349243,789.812744 576.868835,787.783569 576.882324,785.744446 
	C577.046875,760.789246 577.020935,735.832520 576.905884,710.876709 
	C576.899963,709.580750 575.646973,708.290527 574.751770,706.083679 
	C574.800354,688.725708 574.848877,671.367737 575.630737,654.010742 
	C576.363892,654.002991 577.097046,653.995239 578.279907,654.609314 
	C579.572998,659.074707 580.866089,663.540039 582.142334,668.790039 
	C587.036682,686.552429 591.931030,704.314819 596.831177,722.867004 
	C597.619385,725.579590 598.407654,728.292114 599.154663,731.779968 
	C603.071899,745.867065 606.989136,759.954163 610.890808,774.843933 
	C612.452454,780.198242 614.014038,785.552490 615.832458,791.593018 
	C617.228088,792.476746 618.623718,793.360474 620.282654,794.977661 
	C620.817444,795.296448 621.350220,795.889587 621.887268,795.893311 
	C631.746460,795.962646 641.606689,796.004822 651.464966,795.897522 
	C652.311218,795.888306 653.145630,794.787964 654.516968,793.849670 
	C655.060791,793.249329 655.604675,792.649048 656.842346,791.886658 
	C657.581970,790.072449 658.502625,788.309082 659.029236,786.435059 
	C661.109253,779.032715 663.162109,771.619934 665.040039,764.164368 
	C666.808838,757.142212 668.345032,750.061401 670.075439,742.429688 
	C670.082214,742.041077 670.088989,741.652405 670.775696,740.997986 
	C671.246948,739.783325 671.830200,738.599182 672.171570,737.349060 
	C674.793457,727.748169 677.458557,718.157593 679.927856,708.517090 
	C681.755066,701.383118 683.308533,694.179077 685.068665,686.429138 
	C685.077820,686.041077 685.086975,685.653015 685.781677,684.992065 
	C689.501404,672.072571 693.221069,659.153015 696.940735,646.233521 
	C697.983154,663.140503 697.977417,679.837769 697.984375,696.534973 
	C697.996521,725.629150 698.022949,754.723267 698.026733,783.817444 
	C698.027344,788.470520 698.177124,792.988464 704.282898,794.994934 
	C704.824036,795.309753 705.363647,795.896179 705.906677,795.899353 
	C717.312378,795.966980 728.718872,796.016785 740.123474,795.896667 
	C741.087830,795.886475 742.039307,794.653320 742.946228,793.732910 
	C743.059814,793.511597 743.137207,793.280029 743.276672,792.908325 
	C743.276672,792.908325 743.359802,792.682739 743.865479,793.106689 
	C744.590637,792.745544 745.315735,792.384338 746.000427,791.998962 
	C746.000427,791.998962 746.022827,792.040100 746.671448,791.718018 
	C747.175476,789.671936 748.118103,787.626282 748.120117,785.579651 
	C748.196350,709.375854 748.190918,633.172058 748.145447,556.968201 
	C748.144653,555.616150 747.523743,554.264465 747.076904,552.306030 
	C746.723633,551.868774 746.370361,551.431519 745.604980,550.382935 
	C743.680420,549.932007 741.760681,549.115540 739.830444,549.089783 
	C727.879150,548.930908 715.925476,548.949768 703.059814,548.697937 
	C696.715332,548.763672 690.370789,548.829407 683.534180,548.726562 
	C683.368408,548.777222 683.202637,548.827881 682.424622,548.604858 
M500.782928,751.177856 
	C500.578369,748.753235 500.373779,746.328674 500.206268,743.284790 
	C499.621063,742.486572 499.035828,741.688293 497.946289,740.218201 
	C495.067780,739.715454 492.194305,738.815125 489.309875,738.778564 
	C476.695923,738.618774 464.078430,738.763062 451.462860,738.690613 
	C443.009216,738.642090 434.556641,738.414917 425.815277,737.903137 
	C425.474487,737.592285 425.133698,737.281433 424.757355,736.037048 
	C424.773682,699.801208 424.810364,663.565430 424.799225,627.329590 
	C424.791595,602.566528 424.717194,577.803528 424.758331,552.381592 
	C423.508606,551.242920 422.258850,550.104309 420.505219,548.692810 
	C420.320801,548.742493 420.136353,548.792175 419.448181,548.528381 
	C419.284546,548.417236 419.120941,548.306152 418.565491,547.584961 
	C418.115631,547.397522 417.666138,547.047424 417.215790,547.046326 
	C403.748688,547.013611 390.281281,546.985229 376.814789,547.077026 
	C375.884674,547.083313 374.960968,548.024902 373.356079,548.916321 
	C370.241669,549.708679 367.736450,551.141235 367.787292,554.838379 
	C367.934784,565.569824 368.142975,576.300476 368.141846,587.948120 
	C368.377838,609.319336 368.613861,630.690491 368.588745,652.848083 
	C368.675659,654.214539 368.762604,655.580994 368.647644,657.873657 
	C368.706177,667.607361 368.764740,677.341125 368.550415,687.879883 
	C368.640167,689.564697 368.729919,691.249451 368.609283,693.809082 
	C368.674805,695.900574 368.740326,697.992004 368.527191,700.962646 
	C368.620178,704.956787 368.713165,708.950867 368.625519,713.503906 
	C368.684967,713.690430 368.744446,713.876953 368.521179,714.866577 
	C368.614349,716.552856 368.707520,718.239075 368.586121,720.832214 
	C368.543304,742.098389 368.490601,763.364502 368.479126,784.630676 
	C368.478333,786.095581 368.785278,787.560608 368.929443,789.761536 
	C370.656860,793.353699 373.849976,793.673645 377.309235,793.674316 
	C390.520111,793.676819 403.731018,793.761108 417.505615,794.454834 
	C418.138702,794.625977 418.771606,794.945984 419.404907,794.946838 
	C443.735107,794.979126 468.065460,795.007568 492.395325,794.917175 
	C493.664459,794.912476 494.929718,793.863403 496.660614,792.960938 
	C497.863373,791.690002 499.066132,790.419067 500.662964,788.712463 
	C500.782562,788.141113 500.902130,787.569702 501.805298,786.806580 
	C501.994232,780.393005 502.194275,773.979675 502.314575,767.564819 
	C502.317932,767.385132 501.468292,767.189453 500.812683,766.111633 
	C500.879517,763.074097 500.946350,760.036499 501.725922,756.860718 
	C503.459137,754.945007 504.026428,753.203674 500.782928,751.177856 
M336.768005,739.019592 
	C334.868317,738.682190 332.969635,738.057861 331.068817,738.051331 
	C310.099579,737.979675 289.127075,737.813965 268.162598,738.136536 
	C262.939911,738.216736 261.866760,736.625427 261.881439,731.690491 
	C262.052002,674.274536 262.003204,616.857910 261.935516,559.441528 
	C261.933380,557.635559 261.103516,555.830505 260.333801,553.333008 
	C258.843140,551.659912 257.352448,549.986877 255.556992,547.658630 
	C255.121063,547.447754 254.685593,547.053589 254.249130,547.052490 
	C239.435577,547.014648 224.621765,546.986511 209.808670,547.073730 
	C208.881088,547.079224 207.959061,548.027893 206.413406,548.954285 
	C205.222839,550.617065 204.032272,552.279846 202.632751,554.849304 
	C202.709671,558.251526 202.786591,561.653809 202.611755,565.957275 
	C202.648026,638.951538 202.680054,711.945740 202.727539,784.940002 
	C202.732010,791.812622 204.756393,793.829407 211.684494,793.821045 
	C230.682968,793.798096 249.681381,793.726257 268.679810,793.672852 
	C289.844604,793.613403 311.009430,793.570801 332.174133,793.483704 
	C340.026001,793.451416 341.610657,791.777893 341.633240,784.132507 
	C341.668121,772.300354 341.900757,760.467224 341.771606,748.637573 
	C341.746765,746.366028 340.440735,744.108459 339.499084,741.330261 
	C338.736053,740.827698 337.972992,740.325134 336.768005,739.019592 
z"/>
<path fill="#000000" opacity="1.000000" stroke="none" 
	d="
M188.531342,1.000001 
	C188.352371,1.665297 187.766647,2.834365 187.048111,2.922655 
	C165.745148,5.540278 145.683487,12.062872 126.124474,20.838095 
	C109.774277,28.173674 94.743080,37.575268 81.023972,48.764351 
	C60.989616,65.104050 44.086529,84.414047 30.966709,106.901115 
	C19.857977,125.941231 11.746829,146.171417 6.315294,167.467514 
	C4.679200,173.882339 4.105269,180.565536 2.957689,187.110519 
	C2.803034,187.992569 2.136451,188.784851 1.353458,189.309357 
	C1.000000,126.406303 1.000000,63.812611 1.000000,1.000000 
	C63.354057,1.000000 125.708366,1.000000 188.531342,1.000001 
z"/>
<path fill="#000000" opacity="1.000000" stroke="none" 
	d="
M937.000000,188.531357 
	C936.334900,188.352112 935.166199,187.766098 935.077881,187.047287 
	C932.458923,165.744766 925.936951,145.682999 917.162170,126.124123 
	C909.826965,109.773827 900.424866,94.742699 889.235474,81.024055 
	C872.895264,60.990311 853.586060,44.086342 831.098267,30.966953 
	C812.057861,19.858780 791.828735,11.746065 770.532288,6.315957 
	C764.117310,4.680302 757.434204,4.106009 750.889282,2.958355 
	C750.007263,2.803702 749.215088,2.136687 748.690674,1.353462 
	C811.593689,1.000000 874.187378,1.000000 937.000000,1.000000 
	C937.000000,63.354057 937.000000,125.708366 937.000000,188.531357 
z"/>
<path fill="#000000" opacity="1.000000" stroke="none" 
	d="
M749.468689,941.000000 
	C749.647583,940.334595 750.233215,939.165283 750.951660,939.076965 
	C772.254578,936.459656 792.316040,929.936951 811.875183,921.162354 
	C828.225647,913.827209 843.256470,904.424927 856.975342,893.236023 
	C877.009644,876.896362 893.914734,857.587646 907.033264,835.099426 
	C918.140686,816.058777 926.254395,795.829529 931.684204,774.532776 
	C933.319824,768.117737 933.894287,761.434631 935.041931,754.889648 
	C935.196594,754.007629 935.863403,753.215332 936.646484,752.690796 
	C937.000000,815.593689 937.000000,878.187378 937.000000,941.000000 
	C874.645935,941.000000 812.291626,941.000000 749.468689,941.000000 
z"/>
<path fill="#000000" opacity="1.000000" stroke="none" 
	d="
M1.000008,753.468628 
	C1.665413,753.647400 2.834688,754.232910 2.922950,754.951233 
	C5.540203,776.254211 12.062377,796.315796 20.837440,815.874878 
	C28.172909,832.225220 37.575809,847.255676 48.764095,860.975159 
	C65.102821,881.010376 84.413185,897.913269 106.900780,911.032471 
	C125.941093,922.140564 146.170151,930.254517 167.467209,935.683655 
	C173.882401,937.318970 180.565216,937.894470 187.110184,939.042480 
	C187.992233,939.197144 188.784561,939.863586 189.309235,940.646545 
	C126.406319,941.000000 63.812634,941.000000 1.000000,941.000000 
	C1.000000,878.645935 1.000000,816.291626 1.000008,753.468628 
z"/>
<path fill="#191F20" opacity="1.000000" stroke="none" 
	d="
M379.048401,209.002380 
	C361.659241,191.309662 344.342438,173.544632 326.810089,155.994980 
	C323.869263,153.051224 323.554352,151.161255 326.062927,147.678986 
	C339.776306,128.642609 353.262238,109.440933 366.668304,90.186043 
	C368.971985,86.877304 370.670624,86.347786 373.591003,89.409340 
	C392.326019,109.049934 411.138397,128.616943 429.979645,148.155792 
	C432.349731,150.613663 432.945892,152.972672 432.553009,156.581543 
	C430.322418,177.070877 428.609619,197.616577 426.654907,218.857193 
	C429.625885,218.714722 432.048737,218.606613 434.470703,218.481186 
	C472.218536,216.526596 504.823761,228.032104 531.728699,255.087616 
	C556.034302,279.529175 580.733643,303.579376 605.027222,328.032715 
	C615.909302,338.986389 624.388367,351.711090 630.486023,366.768524 
	C635.406921,379.425568 638.078064,391.862274 638.637573,404.706879 
	C639.310791,420.162231 636.406860,435.018860 630.666504,449.349243 
	C622.810791,466.828217 612.081970,482.112396 595.988159,493.928009 
	C590.859497,497.026733 586.428894,500.028961 581.998291,503.031189 
	C581.998291,503.031189 581.895081,503.200531 581.364258,503.153320 
	C580.339661,503.113220 579.786194,502.974518 579.360840,503.148651 
	C567.617371,507.955994 555.457581,511.116547 542.858826,512.676270 
	C541.833740,512.803223 540.952576,514.093201 540.004578,514.842773 
	C535.967896,514.936523 531.931213,515.030273 527.425110,514.603394 
	C525.701782,513.390930 524.519531,512.328613 523.181885,512.069946 
	C516.493713,510.776642 509.773712,509.638092 503.046356,508.561066 
	C499.672485,508.020966 496.259064,507.727814 492.863525,507.322968 
	C481.828491,503.611725 471.739929,497.919891 463.357025,490.049683 
	C445.653381,473.428650 428.406738,456.310822 411.252655,439.117432 
	C395.261932,423.090118 379.355621,406.959930 363.932648,390.390564 
	C351.199677,376.711212 343.444641,360.244202 340.193848,341.172424 
	C340.661743,339.016113 341.080261,337.517487 340.916779,336.085297 
	C339.232849,321.332062 339.256561,306.685181 342.641266,292.104858 
	C343.009277,290.519501 341.757141,287.739838 340.373871,286.759552 
	C338.340027,285.318207 335.563538,284.658966 333.011017,284.265137 
	C325.433136,283.095917 317.794830,282.322906 310.208282,281.203949 
	C299.099213,279.565399 288.014587,277.761017 276.919556,276.027283 
	C276.646759,275.853577 276.373932,275.679810 276.046570,274.874573 
	C275.632965,269.886475 273.327118,267.438416 268.930450,267.040161 
	C268.930450,267.040161 268.999756,267.013763 268.980652,266.684143 
	C268.057739,265.548706 267.153961,264.742889 266.250183,263.937103 
	C250.615585,246.648148 234.987747,229.353058 219.339951,212.076050 
	C216.643234,209.098587 217.465408,207.051056 220.902222,205.621979 
	C242.998535,196.433929 265.064392,187.169769 287.271118,178.256668 
	C288.787109,177.648178 292.018433,179.106735 293.353943,180.591583 
	C309.281708,198.300766 324.989380,216.207748 340.791443,234.030350 
	C342.578613,236.046036 344.209503,239.145691 347.652130,236.580933 
	C350.208557,234.676376 350.602936,232.678955 348.159363,229.960785 
	C334.798035,215.097992 321.635468,200.056747 308.329620,185.143738 
	C303.142090,179.329666 298.344971,173.858994 297.199829,165.255829 
	C296.344910,158.832794 291.902008,152.887344 289.216736,146.209869 
	C287.312561,143.777069 285.248566,141.863602 283.184570,139.950134 
	C282.546570,139.489456 281.908539,139.028763 281.087280,137.939575 
	C279.540283,136.588058 278.176544,135.865067 276.812836,135.142090 
	C276.812836,135.142090 276.904602,135.080902 276.879547,134.771454 
	C272.781952,132.643356 268.841278,129.773804 264.607208,129.242462 
	C257.547699,128.356552 250.300339,128.967636 243.132065,128.948425 
	C243.132065,128.948425 243.046036,128.960037 243.030060,128.504074 
	C242.715073,126.601219 242.372513,125.161758 242.124298,123.706215 
	C240.805069,115.969772 246.988586,108.441811 254.433167,109.158661 
	C260.869385,109.778419 267.259674,110.923698 273.647522,111.974854 
	C276.534424,112.449905 279.366150,113.260292 282.222900,113.918549 
	C282.222900,113.918549 282.616699,113.882996 282.865692,114.277939 
	C288.395752,117.786499 293.676819,120.900116 298.957886,124.013733 
	C299.907440,124.784058 300.856964,125.554390 301.916443,126.984100 
	C302.234680,128.426743 302.198456,129.441620 302.688019,129.958496 
	C309.956451,137.632324 314.375061,146.740295 316.992462,156.917709 
	C317.483246,158.826141 319.645325,160.304764 321.036133,161.981735 
	C321.036133,161.981735 320.994904,161.994415 321.011536,162.344574 
	C324.502655,168.962570 329.096619,174.080933 335.776093,177.057922 
	C336.406677,177.593216 337.037262,178.128494 337.834259,179.298462 
	C340.469421,186.526978 345.835968,190.089645 351.750977,193.078613 
	C351.750977,193.078613 351.930054,193.069641 351.961304,193.506805 
	C352.953186,195.422089 353.705536,197.102432 354.910553,198.343216 
	C360.083984,203.670364 365.249695,209.021469 370.712830,214.043365 
	C373.152405,216.285934 376.244568,217.547592 377.813568,212.759598 
	C377.813568,212.759598 377.875854,212.878311 378.161102,212.860748 
	C380.089508,211.789017 382.219299,210.811142 379.048401,209.002380 
z"/>
<path fill="#191F20" opacity="1.000000" stroke="none" 
	d="
M582.159241,668.005432 
	C580.866089,663.540039 579.572998,659.074707 578.057983,653.925049 
	C576.983459,650.535156 576.130920,647.829529 574.955811,645.159729 
	C574.084351,645.469116 573.535522,645.742737 572.699707,646.316223 
	C572.275574,647.592163 572.018677,648.568115 572.018250,649.544250 
	C572.000549,694.949219 571.996643,740.354187 572.047729,785.759094 
	C572.049316,787.161133 572.649048,788.562500 573.065308,790.160278 
	C573.334961,790.592041 573.539185,790.797974 573.795349,791.211060 
	C573.817200,791.448059 573.752808,791.919678 573.752808,791.919678 
	C572.668640,792.560059 571.584473,793.200439 569.772827,793.993042 
	C555.704407,794.173401 542.363464,794.201416 529.022522,794.229492 
	C527.822083,793.305481 526.621643,792.381531 525.078064,790.830933 
	C524.438660,788.084778 523.890015,785.966064 523.882568,783.845459 
	C523.620056,708.858887 523.400818,633.872131 523.225159,558.885376 
	C523.219788,556.593689 523.743469,554.300842 524.020508,552.008545 
	C524.840759,551.383484 525.660950,550.758423 526.985107,549.969727 
	C527.658020,549.847961 527.827087,549.889954 528.284424,550.236694 
	C539.464111,550.689514 550.355652,550.889404 561.247192,550.891785 
	C562.167358,550.891968 563.087708,549.569519 564.461060,548.742065 
	C569.922729,548.696228 574.931213,548.769897 580.213379,549.168945 
	C584.991394,549.662903 589.495667,549.831482 594.242004,550.252319 
	C595.139465,550.436768 595.794983,550.368958 596.450439,550.301147 
	C596.450439,550.301208 596.569702,550.403870 596.462280,550.853638 
	C598.966431,561.248718 601.590759,571.190796 604.187073,581.140137 
	C608.842041,598.978638 613.373047,616.850708 618.221375,634.636353 
	C619.119385,637.930542 621.268982,640.883606 622.840881,643.994080 
	C622.946167,644.136841 623.051514,644.279541 622.842163,644.934204 
	C623.687378,649.631592 624.847168,653.817017 626.006958,658.002380 
	C626.006958,658.002380 626.123718,658.376587 626.078979,659.005615 
	C627.748169,667.466492 629.357117,675.323669 631.243896,683.113525 
	C631.769104,685.281921 632.984253,687.330017 634.142456,689.278992 
	C634.745972,690.294495 636.473328,691.830322 636.733093,691.660767 
	C638.012573,690.825439 639.502075,689.669800 639.942139,688.311279 
	C641.266907,684.221252 642.067505,679.965149 643.200256,675.808594 
	C647.275940,660.852112 651.484314,645.930908 655.434265,630.941528 
	C656.100464,628.413391 655.736755,625.613953 655.848877,622.939819 
	C656.145996,621.492859 656.443115,620.045837 657.307922,618.237305 
	C658.891174,616.095764 660.340088,614.431702 660.852173,612.516968 
	C664.217468,599.933899 667.507751,587.327087 670.532288,574.658752 
	C671.438721,570.862061 671.419800,566.844482 671.824829,562.928101 
	C671.807617,562.756042 671.790405,562.584045 672.273987,562.138000 
	C673.875000,559.722839 675.394287,557.689941 675.981506,555.416321 
	C676.963196,551.615601 678.815857,549.513184 683.172852,549.894653 
	C683.619812,549.481628 683.823059,549.188354 684.026306,548.895081 
	C690.370789,548.829407 696.715332,548.763672 703.614624,549.202393 
	C705.821289,550.137817 707.470032,550.928650 709.125427,550.942627 
	C721.421875,551.046570 733.719727,550.996216 746.017090,550.994263 
	C746.370361,551.431519 746.723633,551.868774 746.833801,552.852417 
	C746.401367,632.945923 746.212097,712.492981 746.022827,792.040100 
	C746.022827,792.040100 746.000427,791.998962 745.554810,792.033081 
	C744.526001,792.272461 743.942932,792.477600 743.359802,792.682739 
	C743.359802,792.682739 743.276672,792.908325 742.717651,792.668152 
	C740.175842,792.285095 738.193604,792.027344 736.210327,792.018677 
	C726.224243,791.975281 716.236145,791.887268 706.252441,792.045837 
	C701.816467,792.116272 699.805786,790.434387 699.957214,785.887146 
	C700.139893,780.400818 699.957153,774.903320 700.010864,769.411438 
	C700.079041,762.432251 700.213806,755.453613 700.341675,748.475159 
	C700.473633,741.267639 700.790405,734.059509 700.744446,726.853516 
	C700.657654,713.244385 700.339661,699.636963 700.178955,686.028076 
	C700.118713,680.925598 700.288025,675.820557 700.247681,670.717590 
	C700.184143,662.684692 700.093140,654.650574 699.825378,646.623169 
	C699.797607,645.790955 698.570984,644.459412 697.763184,644.347107 
	C696.984375,644.238770 695.627808,645.218018 695.226624,646.055542 
	C694.167114,648.267273 693.272156,650.608887 692.694214,652.991577 
	C690.089050,663.731812 687.616577,674.504150 685.096191,685.264954 
	C685.086975,685.653015 685.077820,686.041077 684.703369,686.896240 
	C681.213379,697.341248 678.017090,707.297607 675.009949,717.310730 
	C674.167969,720.114075 673.926270,723.093689 673.333618,725.976807 
	C672.284912,731.078796 671.178162,736.168762 670.095764,741.263794 
	C670.088989,741.652405 670.082214,742.041077 669.704102,742.901245 
	C666.581665,752.112427 663.716064,760.818237 661.114624,769.602234 
	C658.917419,777.021118 657.026489,784.530579 654.532349,792.006836 
	C649.986511,792.015808 645.898743,791.862244 641.835388,792.109619 
	C640.524902,792.189453 639.278564,793.323914 637.562378,794.079712 
	C634.414429,794.116333 631.707092,794.049072 628.906616,793.595032 
	C624.400940,792.441101 619.988342,791.673950 615.575684,790.906738 
	C614.014038,785.552490 612.452454,780.198242 611.181152,774.205200 
	C611.512573,772.776978 611.750183,771.937500 611.564087,771.205688 
	C609.789978,764.230774 607.906433,757.283691 606.130981,750.309082 
	C604.753723,744.898743 603.609192,739.425171 602.073975,734.061890 
	C601.731689,732.866211 600.186951,732.014709 599.195862,731.004700 
	C598.407654,728.292114 597.619385,725.579590 597.104126,722.253662 
	C595.615540,713.962219 593.893127,706.274841 592.081299,698.608643 
	C590.282043,690.995239 588.597839,683.344177 586.436462,675.832458 
	C585.634216,673.044067 583.620544,670.604187 582.159241,668.005432 
z"/>
<path fill="#191F21" opacity="1.000000" stroke="none" 
	d="
M202.841705,553.942627 
	C204.032272,552.279846 205.222839,550.617065 207.188354,548.789185 
	C223.629745,548.699280 239.296204,548.774536 255.056702,549.020630 
	C255.425537,549.103088 255.700333,549.014709 255.881104,548.785400 
	C255.787079,548.644409 255.861740,548.313843 255.861755,548.313843 
	C257.352448,549.986877 258.843140,551.659912 260.337708,554.121765 
	C260.424347,615.016235 260.488373,675.122009 260.690857,735.227295 
	C260.696320,736.839966 262.200958,738.447449 263.102417,740.447021 
	C263.881104,741.211609 264.562347,741.910400 265.246918,741.913757 
	C279.184814,741.981079 293.123444,742.007507 307.060608,741.889771 
	C308.043671,741.881531 309.016754,740.692688 310.454712,739.956360 
	C318.274750,739.903076 325.634460,739.946167 333.246155,740.276550 
	C335.574005,740.990662 337.649872,741.417542 339.725739,741.844482 
	C340.440735,744.108459 341.746765,746.366028 341.771606,748.637573 
	C341.900757,760.467224 341.668121,772.300354 341.633240,784.132507 
	C341.610657,791.777893 340.026001,793.451416 332.174133,793.483704 
	C311.009430,793.570801 289.844604,793.613403 268.679810,793.672852 
	C249.681381,793.726257 230.682968,793.798096 211.684494,793.821045 
	C204.756393,793.829407 202.732010,791.812622 202.727539,784.940002 
	C202.680054,711.945740 202.648026,638.951538 203.051437,565.233276 
	C203.274643,560.987000 203.058182,557.464844 202.841705,553.942627 
z"/>
<path fill="#191F20" opacity="1.000000" stroke="none" 
	d="
M424.792908,736.970581 
	C425.133698,737.281433 425.474487,737.592285 426.126648,738.494507 
	C428.009583,739.390259 429.577301,739.937683 431.153229,739.962280 
	C453.585022,740.313049 476.017944,740.592957 498.450592,740.890076 
	C499.035828,741.688293 499.621063,742.486572 499.867859,743.879639 
	C499.403412,758.842651 499.265533,773.210693 499.199005,787.579163 
	C499.196625,788.100464 499.896362,788.625122 500.268860,789.148193 
	C499.066132,790.419067 497.863373,791.690002 495.990295,793.114258 
	C486.997009,793.304260 478.673950,793.320129 470.351196,793.381836 
	C452.548004,793.513672 434.744995,793.669189 416.941895,793.814941 
	C403.731018,793.761108 390.520111,793.676819 377.309235,793.674316 
	C373.849976,793.673645 370.656860,793.353699 369.241486,789.100586 
	C369.699677,787.802917 369.972778,787.166443 369.973663,786.529541 
	C370.002533,765.513123 370.024994,744.496704 369.960266,723.480530 
	C369.956604,722.294250 369.204498,721.110352 368.800720,719.925354 
	C368.707520,718.239075 368.614349,716.552856 368.843872,714.355652 
	C369.046417,713.544800 368.926300,713.244934 368.806152,712.945007 
	C368.713165,708.950867 368.620178,704.956787 368.978943,700.276733 
	C369.227020,697.372009 369.023346,695.153137 368.819672,692.934265 
	C368.729919,691.249451 368.640167,689.564697 369.013855,687.199768 
	C369.621490,677.189880 369.783203,667.860229 369.863586,658.529907 
	C369.868134,658.005371 369.203003,657.475098 368.849518,656.947449 
	C368.762604,655.580994 368.675659,654.214539 369.042725,652.175781 
	C369.650574,651.035400 369.938263,650.567383 369.938995,650.098999 
	C369.969177,630.135437 369.999146,610.171692 369.911041,590.208557 
	C369.906372,589.147217 368.878723,588.090393 368.327332,587.031433 
	C368.142975,576.300476 367.934784,565.569824 367.787292,554.838379 
	C367.736450,551.141235 370.241669,549.708679 374.157623,548.786926 
	C389.625244,548.503357 404.291290,548.349243 418.957367,548.195068 
	C419.120941,548.306152 419.284546,548.417236 419.792419,548.862488 
	C420.427460,549.119629 420.718292,549.042603 421.009125,548.965637 
	C422.258850,550.104309 423.508606,551.242920 424.355286,552.844604 
	C423.641876,554.529358 423.060974,555.750854 423.060059,556.972717 
	C423.015839,615.613525 423.009857,674.254272 423.096039,732.894958 
	C423.098022,734.254333 424.202637,735.612061 424.792908,736.970581 
z"/>
<path fill="#D4D4D2" opacity="1.000000" stroke="none" 
	d="
M523.669861,552.082642 
	C523.743469,554.300842 523.219788,556.593689 523.225159,558.885376 
	C523.400818,633.872131 523.620056,708.858887 523.882568,783.845459 
	C523.890015,785.966064 524.438660,788.084778 524.835083,790.614624 
	C521.824646,789.882202 520.974060,787.585388 520.978027,784.397461 
	C521.043274,731.959351 520.955261,679.520996 521.075195,627.083130 
	C521.107117,613.141785 522.007324,599.200745 521.955566,585.261597 
	C521.926208,577.353394 520.411072,569.454102 520.309021,561.541199 
	C520.268799,558.426453 522.255493,555.285645 523.669861,552.082642 
z"/>
<path fill="#1C1E1E" opacity="1.000000" stroke="none" 
	d="
M746.347168,791.879028 
	C746.212097,712.492981 746.401367,632.945923 746.891479,553.155701 
	C747.523743,554.264465 748.144653,555.616150 748.145447,556.968201 
	C748.190918,633.172058 748.196350,709.375854 748.120117,785.579651 
	C748.118103,787.626282 747.175476,789.671936 746.347168,791.879028 
z"/>
<path fill="#171919" opacity="1.000000" stroke="none" 
	d="
M685.438965,685.128540 
	C687.616577,674.504150 690.089050,663.731812 692.694214,652.991577 
	C693.272156,650.608887 694.167114,648.267273 695.226624,646.055542 
	C695.627808,645.218018 696.984375,644.238770 697.763184,644.347107 
	C698.570984,644.459412 699.797607,645.790955 699.825378,646.623169 
	C700.093140,654.650574 700.184143,662.684692 700.247681,670.717590 
	C700.288025,675.820557 700.118713,680.925598 700.178955,686.028076 
	C700.339661,699.636963 700.657654,713.244385 700.744446,726.853516 
	C700.790405,734.059509 700.473633,741.267639 700.341675,748.475159 
	C700.213806,755.453613 700.079041,762.432251 700.010864,769.411438 
	C699.957153,774.903320 700.139893,780.400818 699.957214,785.887146 
	C699.805786,790.434387 701.816467,792.116272 706.252441,792.045837 
	C716.236145,791.887268 726.224243,791.975281 736.210327,792.018677 
	C738.193604,792.027344 740.175842,792.285095 742.668457,792.733093 
	C743.137207,793.280029 743.059814,793.511597 742.507385,793.929199 
	C729.386963,794.170959 716.705322,794.216370 704.023743,794.261780 
	C698.177124,792.988464 698.027344,788.470520 698.026733,783.817444 
	C698.022949,754.723267 697.996521,725.629150 697.984375,696.534973 
	C697.977417,679.837769 697.983154,663.140503 696.940735,646.233521 
	C693.221069,659.153015 689.501404,672.072571 685.438965,685.128540 
z"/>
<path fill="#F6F6F4" opacity="1.000000" stroke="none" 
	d="
M332.994202,739.989319 
	C325.634460,739.946167 318.274750,739.903076 309.991333,739.883545 
	C293.713959,739.957275 278.360229,740.007324 263.006531,740.057373 
	C262.200958,738.447449 260.696320,736.839966 260.690857,735.227295 
	C260.488373,675.122009 260.424347,615.016235 260.500549,554.467773 
	C261.103516,555.830505 261.933380,557.635559 261.935516,559.441528 
	C262.003204,616.857910 262.052002,674.274536 261.881439,731.690491 
	C261.866760,736.625427 262.939911,738.216736 268.162598,738.136536 
	C289.127075,737.813965 310.099579,737.979675 331.068817,738.051331 
	C332.969635,738.057861 334.868317,738.682190 336.719727,739.466675 
	C335.445709,739.938965 334.219971,739.964172 332.994202,739.989319 
z"/>
<path fill="#020304" opacity="1.000000" stroke="none" 
	d="
M424.775146,736.503784 
	C424.202637,735.612061 423.098022,734.254333 423.096039,732.894958 
	C423.009857,674.254272 423.015839,615.613525 423.060059,556.972717 
	C423.060974,555.750854 423.641876,554.529358 424.312439,553.174072 
	C424.717194,577.803528 424.791595,602.566528 424.799225,627.329590 
	C424.810364,663.565430 424.773682,699.801208 424.775146,736.503784 
z"/>
<path fill="#020304" opacity="1.000000" stroke="none" 
	d="
M573.773499,790.974121 
	C573.539185,790.797974 573.334961,790.592041 573.076782,789.695923 
	C572.990784,741.362488 572.988708,693.689392 572.986633,646.016357 
	C573.535522,645.742737 574.084351,645.469116 574.819946,645.585449 
	C574.970154,648.653564 574.933777,651.331665 574.897400,654.009766 
	C574.848877,671.367737 574.800354,688.725708 574.771118,707.001587 
	C574.832825,733.546021 574.901733,759.172607 574.867798,784.799011 
	C574.865051,786.857849 574.154907,788.915771 573.773499,790.974121 
z"/>
<path fill="#171919" opacity="1.000000" stroke="none" 
	d="
M277.073547,276.348450 
	C288.014587,277.761017 299.099213,279.565399 310.208282,281.203949 
	C317.794830,282.322906 325.433136,283.095917 333.011017,284.265137 
	C335.563538,284.658966 338.340027,285.318207 340.373871,286.759552 
	C341.757141,287.739838 343.009277,290.519501 342.641266,292.104858 
	C339.256561,306.685181 339.232849,321.332062 340.916779,336.085297 
	C341.080261,337.517487 340.661743,339.016113 340.217804,340.758850 
	C335.999695,323.786804 337.508606,306.672302 341.677917,288.675262 
	C332.938782,287.110626 324.522888,285.517822 316.075745,284.112671 
	C304.800507,282.237091 293.492310,280.558899 282.221130,278.660400 
	C280.493835,278.369446 278.888977,277.351349 277.073547,276.348450 
z"/>
<path fill="#171919" opacity="1.000000" stroke="none" 
	d="
M655.640259,623.234985 
	C655.736755,625.613953 656.100464,628.413391 655.434265,630.941528 
	C651.484314,645.930908 647.275940,660.852112 643.200256,675.808594 
	C642.067505,679.965149 641.266907,684.221252 639.942139,688.311279 
	C639.502075,689.669800 638.012573,690.825439 636.733093,691.660767 
	C636.473328,691.830322 634.745972,690.294495 634.142456,689.278992 
	C632.984253,687.330017 631.769104,685.281921 631.243896,683.113525 
	C629.357117,675.323669 627.748169,667.466492 626.059448,659.200684 
	C628.462830,666.398132 630.835693,674.031311 633.222229,681.660095 
	C634.115662,684.516418 635.041016,687.362732 635.951782,690.213623 
	C636.497803,690.212585 637.043762,690.211548 637.589783,690.210510 
	C643.537048,667.983704 649.484314,645.756958 655.640259,623.234985 
z"/>
<path fill="#171919" opacity="1.000000" stroke="none" 
	d="
M622.843750,643.600098 
	C621.268982,640.883606 619.119385,637.930542 618.221375,634.636353 
	C613.373047,616.850708 608.842041,598.978638 604.187073,581.140137 
	C601.590759,571.190796 598.966431,561.248718 596.515198,550.911865 
	C597.788940,553.407776 599.194519,556.219604 599.964722,559.195801 
	C603.147278,571.494812 605.903625,583.907654 609.256775,596.158142 
	C613.565796,611.901245 618.297241,627.528748 622.843750,643.600098 
z"/>
<path fill="#EEEEEC" opacity="1.000000" stroke="none" 
	d="
M630.846436,449.659424 
	C636.406860,435.018860 639.310791,420.162231 638.637573,404.706879 
	C638.078064,391.862274 635.406921,379.425568 630.712036,367.063568 
	C631.613586,366.923218 633.403076,366.968109 633.484436,367.364014 
	C636.091125,380.050629 639.597717,392.680603 640.689148,405.512970 
	C641.709167,417.504547 639.386353,429.593903 635.463745,441.174072 
	C634.777283,443.200653 634.659851,445.439636 633.832764,447.391113 
	C633.381531,448.455841 631.992493,449.123077 630.846436,449.659424 
z"/>
<path fill="#F6F6F4" opacity="1.000000" stroke="none" 
	d="
M573.795349,791.211060 
	C574.154907,788.915771 574.865051,786.857849 574.867798,784.799011 
	C574.901733,759.172607 574.832825,733.546021 574.882507,707.458557 
	C575.646973,708.290527 576.899963,709.580750 576.905884,710.876709 
	C577.020935,735.832520 577.046875,760.789246 576.882324,785.744446 
	C576.868835,787.783569 575.349243,789.812744 574.141113,791.883057 
	C573.752808,791.919678 573.817200,791.448059 573.795349,791.211060 
z"/>
<path fill="#F6F6F4" opacity="1.000000" stroke="none" 
	d="
M417.223755,794.134888 
	C434.744995,793.669189 452.548004,793.513672 470.351196,793.381836 
	C478.673950,793.320129 486.997009,793.304260 495.758362,793.284058 
	C494.929718,793.863403 493.664459,794.912476 492.395325,794.917175 
	C468.065460,795.007568 443.735107,794.979126 419.404907,794.946838 
	C418.771606,794.945984 418.138702,794.625977 417.223755,794.134888 
z"/>
<path fill="#171919" opacity="1.000000" stroke="none" 
	d="
M282.100952,113.585052 
	C279.366150,113.260292 276.534424,112.449905 273.647522,111.974854 
	C267.259674,110.923698 260.869385,109.778419 254.433167,109.158661 
	C246.988586,108.441811 240.805069,115.969772 242.124298,123.706215 
	C242.372513,125.161758 242.715073,126.601219 243.031891,128.460709 
	C236.021393,123.448677 240.364624,112.893570 245.770905,109.991798 
	C252.206833,106.537369 258.876526,106.521439 265.579010,108.095146 
	C271.142517,109.401428 276.519409,111.502548 282.100952,113.585052 
z"/>
<path fill="#171919" opacity="1.000000" stroke="none" 
	d="
M671.609558,563.211426 
	C671.419800,566.844482 671.438721,570.862061 670.532288,574.658752 
	C667.507751,587.327087 664.217468,599.933899 660.852173,612.516968 
	C660.340088,614.431702 658.891174,616.095764 657.523071,617.935120 
	C661.911743,599.827881 666.653015,581.661316 671.609558,563.211426 
z"/>
<path fill="#171919" opacity="1.000000" stroke="none" 
	d="
M670.435730,741.130859 
	C671.178162,736.168762 672.284912,731.078796 673.333618,725.976807 
	C673.926270,723.093689 674.167969,720.114075 675.009949,717.310730 
	C678.017090,707.297607 681.213379,697.341248 684.661011,687.184814 
	C683.308533,694.179077 681.755066,701.383118 679.927856,708.517090 
	C677.458557,718.157593 674.793457,727.748169 672.171570,737.349060 
	C671.830200,738.599182 671.246948,739.783325 670.435730,741.130859 
z"/>
<path fill="#060A0A" opacity="1.000000" stroke="none" 
	d="
M368.693420,720.378784 
	C369.204498,721.110352 369.956604,722.294250 369.960266,723.480530 
	C370.024994,744.496704 370.002533,765.513123 369.973663,786.529541 
	C369.972778,787.166443 369.699677,787.802917 369.251312,788.732605 
	C368.785278,787.560608 368.478333,786.095581 368.479126,784.630676 
	C368.490601,763.364502 368.543304,742.098389 368.693420,720.378784 
z"/>
<path fill="#1C1E1E" opacity="1.000000" stroke="none" 
	d="
M745.811035,550.688599 
	C733.719727,550.996216 721.421875,551.046570 709.125427,550.942627 
	C707.470032,550.928650 705.821289,550.137817 704.071045,549.308228 
	C715.925476,548.949768 727.879150,548.930908 739.830444,549.089783 
	C741.760681,549.115540 743.680420,549.932007 745.811035,550.688599 
z"/>
<path fill="#060A0A" opacity="1.000000" stroke="none" 
	d="
M368.234558,587.489746 
	C368.878723,588.090393 369.906372,589.147217 369.911041,590.208557 
	C369.999146,610.171692 369.969177,630.135437 369.938995,650.098999 
	C369.938263,650.567383 369.650574,651.035400 369.173279,651.782593 
	C368.613861,630.690491 368.377838,609.319336 368.234558,587.489746 
z"/>
<path fill="#171919" opacity="1.000000" stroke="none" 
	d="
M582.150757,668.397705 
	C583.620544,670.604187 585.634216,673.044067 586.436462,675.832458 
	C588.597839,683.344177 590.282043,690.995239 592.081299,698.608643 
	C593.893127,706.274841 595.615540,713.962219 597.101257,721.858765 
	C591.931030,704.314819 587.036682,686.552429 582.150757,668.397705 
z"/>
<path fill="#171919" opacity="1.000000" stroke="none" 
	d="
M655.000000,792.000000 
	C657.026489,784.530579 658.917419,777.021118 661.114624,769.602234 
	C663.716064,760.818237 666.581665,752.112427 669.658203,743.189575 
	C668.345032,750.061401 666.808838,757.142212 665.040039,764.164368 
	C663.162109,771.619934 661.109253,779.032715 659.029236,786.435059 
	C658.502625,788.309082 657.581970,790.072449 656.208130,791.958252 
	C655.382629,792.019958 655.191345,792.009949 655.000000,792.000000 
z"/>
<path fill="#171919" opacity="1.000000" stroke="none" 
	d="
M599.175293,731.392334 
	C600.186951,732.014709 601.731689,732.866211 602.073975,734.061890 
	C603.609192,739.425171 604.753723,744.898743 606.130981,750.309082 
	C607.906433,757.283691 609.789978,764.230774 611.564087,771.205688 
	C611.750183,771.937500 611.512573,772.776978 611.188965,773.803894 
	C606.989136,759.954163 603.071899,745.867065 599.175293,731.392334 
z"/>
<path fill="#FCFCFA" opacity="1.000000" stroke="none" 
	d="
M254.962646,548.849731 
	C239.296204,548.774536 223.629745,548.699280 207.498871,548.580933 
	C207.959061,548.027893 208.881088,547.079224 209.808670,547.073730 
	C224.621765,546.986511 239.435577,547.014648 254.249130,547.052490 
	C254.685593,547.053589 255.121063,547.447754 255.709366,547.986206 
	C255.861740,548.313843 255.787079,548.644409 255.636017,548.659851 
	C255.310867,548.733459 255.136765,548.791565 254.962646,548.849731 
z"/>
<path fill="#FCFCFA" opacity="1.000000" stroke="none" 
	d="
M418.761414,547.890015 
	C404.291290,548.349243 389.625244,548.503357 374.496704,548.594543 
	C374.960968,548.024902 375.884674,547.083313 376.814789,547.077026 
	C390.281281,546.985229 403.748688,547.013611 417.215790,547.046326 
	C417.666138,547.047424 418.115631,547.397522 418.761414,547.890015 
z"/>
<path fill="#020304" opacity="1.000000" stroke="none" 
	d="
M500.465942,788.930298 
	C499.896362,788.625122 499.196625,788.100464 499.199005,787.579163 
	C499.265533,773.210693 499.403412,758.842651 499.849304,744.189270 
	C500.373779,746.328674 500.578369,748.753235 500.806793,751.999878 
	C500.891510,754.214294 500.952362,755.606628 501.013184,756.998962 
	C500.946350,760.036499 500.879517,763.074097 500.827759,767.017761 
	C500.902435,774.282043 500.962067,780.640198 501.021729,786.998352 
	C500.902130,787.569702 500.782562,788.141113 500.465942,788.930298 
z"/>
<path fill="#171919" opacity="1.000000" stroke="none" 
	d="
M540.438660,514.901001 
	C540.952576,514.093201 541.833740,512.803223 542.858826,512.676270 
	C555.457581,511.116547 567.617371,507.955994 579.360840,503.148651 
	C579.786194,502.974518 580.339661,503.113220 581.265503,503.144745 
	C569.040771,510.407288 555.323547,513.954895 540.438660,514.901001 
z"/>
<path fill="#171919" opacity="1.000000" stroke="none" 
	d="
M320.947510,161.611923 
	C319.645325,160.304764 317.483246,158.826141 316.992462,156.917709 
	C314.375061,146.740295 309.956451,137.632324 302.688019,129.958496 
	C302.198456,129.441620 302.234680,128.426743 302.030396,127.271561 
	C310.263306,135.145859 316.022064,144.823364 319.050476,156.107285 
	C319.519501,157.854813 320.249573,159.532257 320.947510,161.611923 
z"/>
<path fill="#171919" opacity="1.000000" stroke="none" 
	d="
M243.303894,129.242462 
	C250.300339,128.967636 257.547699,128.356552 264.607208,129.242462 
	C268.841278,129.773804 272.781952,132.643356 276.866333,134.824997 
	C268.998779,131.473984 261.157257,128.844711 252.155334,131.898315 
	C249.800186,132.697220 246.397369,130.407639 243.303894,129.242462 
z"/>
<path fill="#171919" opacity="1.000000" stroke="none" 
	d="
M493.118805,507.568542 
	C496.259064,507.727814 499.672485,508.020966 503.046356,508.561066 
	C509.773712,509.638092 516.493713,510.776642 523.181885,512.069946 
	C524.519531,512.328613 525.701782,513.390930 526.976074,514.477783 
	C515.249451,515.089722 504.241852,511.784912 493.118805,507.568542 
z"/>
<path fill="#FCFCFA" opacity="1.000000" stroke="none" 
	d="
M529.148804,794.598999 
	C542.363464,794.201416 555.704407,794.173401 569.511841,794.173706 
	C568.968689,794.795410 567.964172,795.894592 566.948669,795.904785 
	C555.089844,796.024170 543.229309,795.996704 531.369568,795.935303 
	C530.669739,795.931702 529.973145,795.305115 529.148804,794.598999 
z"/>
<path fill="#F6F6F4" opacity="1.000000" stroke="none" 
	d="
M579.939758,548.843506 
	C574.931213,548.769897 569.922729,548.696228 564.016479,548.636597 
	C560.083130,548.592346 557.047485,548.534241 554.011902,548.476074 
	C554.943115,547.984802 555.871033,547.073242 556.806030,547.065979 
	C568.500549,546.974792 580.196045,547.003967 591.891113,547.052612 
	C592.472961,547.055054 593.052795,547.519592 593.713745,548.235413 
	C593.793945,548.701843 593.983948,548.964294 593.544067,548.803955 
	C588.716003,548.710205 584.327881,548.776855 579.939758,548.843506 
z"/>
<path fill="#FCFCFA" opacity="1.000000" stroke="none" 
	d="
M704.153320,794.628357 
	C716.705322,794.216370 729.386963,794.170959 742.532654,794.056885 
	C742.039307,794.653320 741.087830,795.886475 740.123474,795.896667 
	C728.718872,796.016785 717.312378,795.966980 705.906677,795.899353 
	C705.363647,795.896179 704.824036,795.309753 704.153320,794.628357 
z"/>
<path fill="#060A0A" opacity="1.000000" stroke="none" 
	d="
M498.198425,740.554138 
	C476.017944,740.592957 453.585022,740.313049 431.153229,739.962280 
	C429.577301,739.937683 428.009583,739.390259 426.270813,738.676880 
	C434.556641,738.414917 443.009216,738.642090 451.462860,738.690613 
	C464.078430,738.763062 476.695923,738.618774 489.309875,738.778564 
	C492.194305,738.815125 495.067780,739.715454 498.198425,740.554138 
z"/>
<path fill="#171919" opacity="1.000000" stroke="none" 
	d="
M377.471283,212.878601 
	C376.244568,217.547592 373.152405,216.285934 370.712830,214.043365 
	C365.249695,209.021469 360.083984,203.670364 354.910553,198.343216 
	C353.705536,197.102432 352.953186,195.422089 351.956787,193.596329 
	C358.047943,199.288361 364.199921,205.302948 370.287537,211.382004 
	C372.285583,213.377258 374.224213,215.089340 377.471283,212.878601 
z"/>
<path fill="#171919" opacity="1.000000" stroke="none" 
	d="
M553.551514,548.571289 
	C557.047485,548.534241 560.083130,548.592346 563.563354,548.756042 
	C563.087708,549.569519 562.167358,550.891968 561.247192,550.891785 
	C550.355652,550.889404 539.464111,550.689514 528.457520,550.099487 
	C528.652161,549.601196 528.889099,549.438782 529.053284,549.170288 
	C537.065918,549.002319 545.078552,548.834412 553.551514,548.571289 
z"/>
<path fill="#FCFCFA" opacity="1.000000" stroke="none" 
	d="
M628.999695,793.981812 
	C631.707092,794.049072 634.414429,794.116333 638.023438,794.157104 
	C643.945190,794.151855 648.965332,794.173157 653.985535,794.194458 
	C653.145630,794.787964 652.311218,795.888306 651.464966,795.897522 
	C641.606689,796.004822 631.746460,795.962646 621.887268,795.893311 
	C621.350220,795.889587 620.817444,795.296448 620.595825,794.544678 
	C623.605957,794.068420 626.302795,794.025146 628.999695,793.981812 
z"/>
<path fill="#1C1E1E" opacity="1.000000" stroke="none" 
	d="
M682.929260,550.014404 
	C678.815857,549.513184 676.963196,551.615601 675.981506,555.416321 
	C675.394287,557.689941 673.875000,559.722839 672.431030,561.931580 
	C672.513977,559.896423 672.965210,557.798279 673.362366,555.690002 
	C674.309387,550.662842 677.185059,548.128723 682.704468,549.025757 
	C682.965942,549.635925 682.947571,549.825134 682.929260,550.014404 
z"/>
<path fill="#171919" opacity="1.000000" stroke="none" 
	d="
M335.627258,176.769775 
	C329.096619,174.080933 324.502655,168.962570 321.024902,162.327454 
	C325.840546,166.800659 330.659485,171.641144 335.627258,176.769775 
z"/>
<path fill="#171919" opacity="1.000000" stroke="none" 
	d="
M351.597412,192.793610 
	C345.835968,190.089645 340.469421,186.526978 337.971008,179.580658 
	C342.442200,183.654968 346.943024,188.081772 351.597412,192.793610 
z"/>
<path fill="#F6F6F4" opacity="1.000000" stroke="none" 
	d="
M501.413513,786.902466 
	C500.962067,780.640198 500.902435,774.282043 500.929596,767.462524 
	C501.468292,767.189453 502.317932,767.385132 502.314575,767.564819 
	C502.194275,773.979675 501.994232,780.393005 501.413513,786.902466 
z"/>
<path fill="#171919" opacity="1.000000" stroke="none" 
	d="
M298.801605,123.720444 
	C293.676819,120.900116 288.395752,117.786499 283.056885,114.328346 
	C288.214478,117.131592 293.429901,120.279373 298.801605,123.720444 
z"/>
<path fill="#060A0A" opacity="1.000000" stroke="none" 
	d="
M654.251221,794.022095 
	C648.965332,794.173157 643.945190,794.151855 638.463928,794.053223 
	C639.278564,793.323914 640.524902,792.189453 641.835388,792.109619 
	C645.898743,791.862244 649.986511,792.015808 654.532349,792.006836 
	C655.191345,792.009949 655.382629,792.019958 655.861206,792.039307 
	C655.604675,792.649048 655.060791,793.249329 654.251221,794.022095 
z"/>
<path fill="#171919" opacity="1.000000" stroke="none" 
	d="
M582.352661,502.979462 
	C586.428894,500.028961 590.859497,497.026733 595.667542,494.019653 
	C591.598999,496.985748 587.153015,499.956757 582.352661,502.979462 
z"/>
<path fill="#060A0A" opacity="1.000000" stroke="none" 
	d="
M368.748596,657.410522 
	C369.203003,657.475098 369.868134,658.005371 369.863586,658.529907 
	C369.783203,667.860229 369.621490,677.189880 369.150269,686.797241 
	C368.764740,677.341125 368.706177,667.607361 368.748596,657.410522 
z"/>
<path fill="#171919" opacity="1.000000" stroke="none" 
	d="
M626.171997,657.713867 
	C624.847168,653.817017 623.687378,649.631592 622.817749,645.199158 
	C624.184265,649.109863 625.260681,653.267578 626.171997,657.713867 
z"/>
<path fill="#060A0A" opacity="1.000000" stroke="none" 
	d="
M628.906616,793.595032 
	C626.302795,794.025146 623.605957,794.068420 620.464233,794.177917 
	C618.623718,793.360474 617.228088,792.476746 615.704102,791.249878 
	C619.988342,791.673950 624.400940,792.441101 628.906616,793.595032 
z"/>
<path fill="#171919" opacity="1.000000" stroke="none" 
	d="
M269.044006,267.356110 
	C273.327118,267.438416 275.632965,269.886475 275.994141,274.627625 
	C273.716705,272.565430 271.437164,270.118744 269.044006,267.356110 
z"/>
<path fill="#F6F6F4" opacity="1.000000" stroke="none" 
	d="
M575.264038,654.010254 
	C574.933777,651.331665 574.970154,648.653564 575.142456,645.549683 
	C576.130920,647.829529 576.983459,650.535156 577.833130,653.614136 
	C577.097046,653.995239 576.363892,654.002991 575.264038,654.010254 
z"/>
<path fill="#171919" opacity="1.000000" stroke="none" 
	d="
M283.328857,140.236603 
	C285.248566,141.863602 287.312561,143.777069 289.119598,145.876251 
	C287.066132,144.215683 285.269623,142.369385 283.328857,140.236603 
z"/>
<path fill="#060A0A" opacity="1.000000" stroke="none" 
	d="
M333.246155,740.276550 
	C334.219971,739.964172 335.445709,739.938965 336.940735,739.868164 
	C337.972992,740.325134 338.736053,740.827698 339.612427,741.587402 
	C337.649872,741.417542 335.574005,740.990662 333.246155,740.276550 
z"/>
<path fill="#060A0A" opacity="1.000000" stroke="none" 
	d="
M202.737244,554.395996 
	C203.058182,557.464844 203.274643,560.987000 203.177307,564.782593 
	C202.786591,561.653809 202.709671,558.251526 202.737244,554.395996 
z"/>
<path fill="#F6F6F4" opacity="1.000000" stroke="none" 
	d="
M501.369568,756.929810 
	C500.952362,755.606628 500.891510,754.214294 500.914856,752.410950 
	C504.026428,753.203674 503.459137,754.945007 501.369568,756.929810 
z"/>
<path fill="#171919" opacity="1.000000" stroke="none" 
	d="
M276.994904,135.408630 
	C278.176544,135.865067 279.540283,136.588058 280.944702,137.677765 
	C279.715942,137.254700 278.446472,136.464935 276.994904,135.408630 
z"/>
<path fill="#171919" opacity="1.000000" stroke="none" 
	d="
M379.008240,209.342041 
	C382.219299,210.811142 380.089508,211.789017 378.101898,212.829315 
	C378.160980,211.770874 378.564514,210.726288 379.008240,209.342041 
z"/>
<path fill="#060A0A" opacity="1.000000" stroke="none" 
	d="
M368.714478,693.371704 
	C369.023346,695.153137 369.227020,697.372009 369.118256,699.837158 
	C368.740326,697.992004 368.674805,695.900574 368.714478,693.371704 
z"/>
<path fill="#171919" opacity="1.000000" stroke="none" 
	d="
M266.357483,264.218201 
	C267.153961,264.742889 268.057739,265.548706 268.959015,266.714264 
	C268.125916,266.215790 267.295349,265.357574 266.357483,264.218201 
z"/>
<path fill="#D4D4D2" opacity="1.000000" stroke="none" 
	d="
M528.903931,548.946167 
	C528.889099,549.438782 528.652161,549.601196 528.169312,549.794678 
	C527.827087,549.889954 527.658020,549.847961 527.229248,549.776733 
	C527.564575,549.405640 528.159546,549.063782 528.903931,548.946167 
z"/>
<path fill="#171919" opacity="1.000000" stroke="none" 
	d="
M596.258179,550.054077 
	C595.794983,550.368958 595.139465,550.436768 594.236206,549.993408 
	C593.986938,549.309570 593.985474,549.136963 593.983948,548.964294 
	C593.983948,548.964294 593.793945,548.701843 593.885742,548.568237 
	C594.673706,548.892090 595.369751,549.349548 596.258179,550.054077 
z"/>
<path fill="#1C1E1E" opacity="1.000000" stroke="none" 
	d="
M743.612671,792.894714 
	C743.942932,792.477600 744.526001,792.272461 745.574951,792.045166 
	C745.315735,792.384338 744.590637,792.745544 743.612671,792.894714 
z"/>
<path fill="#060A0A" opacity="1.000000" stroke="none" 
	d="
M683.172852,549.894653 
	C682.947571,549.825134 682.965942,549.635925 683.010620,549.162598 
	C683.202637,548.827881 683.368408,548.777222 683.780273,548.810791 
	C683.823059,549.188354 683.619812,549.481628 683.172852,549.894653 
z"/>
<path fill="#060A0A" opacity="1.000000" stroke="none" 
	d="
M420.757172,548.829224 
	C420.718292,549.042603 420.427460,549.119629 420.044281,549.019226 
	C420.136353,548.792175 420.320801,548.742493 420.757172,548.829224 
z"/>
<path fill="#060A0A" opacity="1.000000" stroke="none" 
	d="
M368.715820,713.224487 
	C368.926300,713.244934 369.046417,713.544800 368.985260,713.954102 
	C368.744446,713.876953 368.684967,713.690430 368.715820,713.224487 
z"/>
<path fill="#262D2D" opacity="1.000000" stroke="none" 
	d="
M572.699707,646.316223 
	C572.988708,693.689392 572.990784,741.362488 572.981323,789.499878 
	C572.649048,788.562500 572.049316,787.161133 572.047729,785.759094 
	C571.996643,740.354187 572.000549,694.949219 572.018250,649.544250 
	C572.018677,648.568115 572.275574,647.592163 572.699707,646.316223 
z"/>
<path fill="#060A0A" opacity="1.000000" stroke="none" 
	d="
M593.544067,548.803955 
	C593.985474,549.136963 593.986938,549.309570 593.994263,549.741089 
	C589.495667,549.831482 584.991394,549.662903 580.213379,549.168945 
	C584.327881,548.776855 588.716003,548.710205 593.544067,548.803955 
z"/>
<path fill="#060A0A" opacity="1.000000" stroke="none" 
	d="
M263.102417,740.447021 
	C278.360229,740.007324 293.713959,739.957275 309.531067,739.979980 
	C309.016754,740.692688 308.043671,741.881531 307.060608,741.889771 
	C293.123444,742.007507 279.184814,741.981079 265.246918,741.913757 
	C264.562347,741.910400 263.881104,741.211609 263.102417,740.447021 
z"/>
<path fill="#060A0A" opacity="1.000000" stroke="none" 
	d="
M255.056702,549.020569 
	C255.136765,548.791565 255.310867,548.733459 255.730042,548.800781 
	C255.700333,549.014709 255.425537,549.103088 255.056702,549.020569 
z"/>
</svg>